# xmcd CD database file
#
# Track frame offsets:
#	150
#	28220
#	56925
#	86603
#	113975
#	138748
#	150165
#	177310
#	195643
#	225611
#	255325
#	289223
#
# Disc length: 3903 seconds
#
# Revision: 0
# Processed by: cddbd v1.5.1PL0 Copyright (c) Steve Scherf et al.
# Submitted via: CDex 1.50
#
DISCID=a70f3d0c
DTITLE=Dave Weckl - Rythm of the soul
DYEAR=1998
DGENRE=Jazz
TTITLE0=The zone
TTITLE1=101 Shuffle
TTITLE2=Mud sauce
TTITLE3=Designer Stubble
TTITLE4=Someone's Watching
TTITLE5=Transitions Jam
TTITLE6=Rythm Dance
TTITLE7=Access Denied
TTITLE8=Song for Claire
TTITLE9=Big B LIttle B
TTITLE10=Tee Funk
TTITLE11=Good Night
EXTD=YEAR: 1998
EXTT0=
EXTT1=
EXTT2=
EXTT3=
EXTT4=
EXTT5=
EXTT6=
EXTT7=
EXTT8=
EXTT9=
EXTT10=
EXTT11=
PLAYORDER=
